<svg xmlns="http://www.w3.org/2000/svg" xmlns:xlink="http://www.w3.org/1999/xlink" width="40" zoomAndPan="magnify" viewBox="0 0 30 30.000001" height="40" preserveAspectRatio="xMidYMid meet" version="1.0"><defs><clipPath id="8f260d121f"><path d="M 2 2.015625 L 28 2.015625 L 28 26.695312 L 2 26.695312 Z M 2 2.015625 " clip-rule="nonzero"/></clipPath></defs><g clip-path="url(#8f260d121f)"><path fill="#377ca5" d="M 18.832031 26.558594 C 19.300781 26.402344 19.757812 26.21875 20.207031 26.011719 C 20.652344 25.800781 21.085938 25.566406 21.503906 25.304688 C 21.921875 25.042969 22.324219 24.757812 22.710938 24.449219 C 23.097656 24.144531 23.464844 23.8125 23.808594 23.460938 C 24.15625 23.109375 24.484375 22.742188 24.785156 22.351562 C 25.089844 21.960938 25.367188 21.554688 25.625 21.132812 C 25.878906 20.710938 26.109375 20.277344 26.3125 19.828125 C 26.519531 19.378906 26.695312 18.917969 26.84375 18.449219 C 26.996094 17.980469 27.117188 17.5 27.210938 17.015625 C 27.304688 16.53125 27.371094 16.046875 27.40625 15.554688 C 27.445312 15.0625 27.449219 14.570312 27.429688 14.074219 C 27.40625 13.582031 27.359375 13.09375 27.277344 12.605469 C 27.199219 12.121094 27.09375 11.636719 26.957031 11.164062 C 26.820312 10.691406 26.65625 10.226562 26.46875 9.769531 C 26.277344 9.316406 26.058594 8.871094 25.816406 8.441406 C 25.574219 8.011719 25.308594 7.597656 25.015625 7.199219 C 24.726562 6.800781 24.410156 6.421875 24.074219 6.0625 C 23.738281 5.699219 23.382812 5.359375 23.007812 5.039062 C 22.632812 4.71875 22.238281 4.421875 21.828125 4.148438 C 21.414062 3.875 20.988281 3.628906 20.550781 3.40625 C 20.109375 3.179688 19.65625 2.984375 19.195312 2.8125 C 18.730469 2.644531 18.257812 2.5 17.777344 2.386719 C 17.296875 2.273438 16.8125 2.183594 16.324219 2.128906 C 15.832031 2.070312 15.339844 2.039062 14.847656 2.039062 C 14.351562 2.039062 13.859375 2.070312 13.371094 2.128906 C 12.878906 2.183594 12.394531 2.273438 11.914062 2.386719 C 11.433594 2.5 10.960938 2.644531 10.5 2.8125 C 10.035156 2.984375 9.582031 3.179688 9.144531 3.40625 C 8.703125 3.628906 8.277344 3.875 7.867188 4.148438 C 7.453125 4.421875 7.0625 4.71875 6.683594 5.039062 C 6.308594 5.359375 5.953125 5.699219 5.617188 6.0625 C 5.28125 6.421875 4.96875 6.800781 4.675781 7.199219 C 4.382812 7.597656 4.117188 8.011719 3.875 8.441406 C 3.632812 8.871094 3.414062 9.316406 3.226562 9.769531 C 3.035156 10.226562 2.871094 10.691406 2.734375 11.164062 C 2.601562 11.636719 2.492188 12.121094 2.414062 12.605469 C 2.335938 13.09375 2.285156 13.582031 2.261719 14.074219 C 2.242188 14.570312 2.25 15.0625 2.285156 15.554688 C 2.320312 16.046875 2.386719 16.53125 2.480469 17.015625 C 2.574219 17.5 2.695312 17.980469 2.847656 18.449219 C 2.996094 18.917969 3.175781 19.378906 3.378906 19.828125 C 3.582031 20.277344 3.8125 20.710938 4.066406 21.132812 C 4.324219 21.554688 4.601562 21.960938 4.90625 22.351562 C 5.210938 22.742188 5.535156 23.109375 5.882812 23.460938 C 6.230469 23.8125 6.59375 24.144531 6.980469 24.449219 C 7.367188 24.757812 7.769531 25.042969 8.1875 25.304688 C 8.605469 25.566406 9.039062 25.800781 9.488281 26.011719 C 9.933594 26.21875 10.390625 26.402344 10.859375 26.558594 C 11.492188 26.675781 11.71875 26.285156 11.71875 25.949219 C 11.71875 25.722656 11.71875 25.21875 11.71875 24.535156 C 11.714844 24.34375 11.640625 24.1875 11.5 24.0625 C 11.355469 23.941406 11.191406 23.890625 11.003906 23.914062 C 8.105469 24.222656 7.46875 22.105469 7.46875 22.105469 C 6.894531 20.644531 6.066406 20.257812 6.066406 20.257812 C 4.925781 19.472656 6.152344 19.488281 6.152344 19.488281 C 6.558594 19.546875 6.929688 19.6875 7.269531 19.917969 C 7.605469 20.144531 7.878906 20.4375 8.078125 20.792969 C 8.230469 21.082031 8.425781 21.335938 8.671875 21.550781 C 8.917969 21.765625 9.195312 21.929688 9.503906 22.039062 C 9.808594 22.148438 10.125 22.199219 10.453125 22.1875 C 10.777344 22.179688 11.089844 22.109375 11.390625 21.984375 C 11.617188 21.902344 11.753906 21.742188 11.800781 21.507812 C 11.847656 21.304688 11.914062 21.109375 11.996094 20.921875 C 12.039062 20.832031 12.0625 20.734375 12.0625 20.636719 C 12.0625 20.539062 12.039062 20.441406 11.996094 20.351562 C 11.953125 20.265625 11.890625 20.1875 11.8125 20.128906 C 11.734375 20.066406 11.648438 20.027344 11.550781 20.003906 C 9.089844 19.527344 6.8125 18.179688 6.8125 13.914062 C 6.796875 12.84375 7.097656 11.875 7.714844 11.003906 C 7.949219 10.6875 8.027344 10.335938 7.941406 9.953125 C 7.824219 9.355469 7.824219 8.761719 7.941406 8.164062 C 7.972656 8.003906 8.039062 7.855469 8.132812 7.722656 C 8.226562 7.589844 8.34375 7.480469 8.480469 7.398438 C 8.621094 7.3125 8.773438 7.261719 8.933594 7.242188 C 9.097656 7.21875 9.253906 7.234375 9.410156 7.28125 C 10.058594 7.492188 10.667969 7.78125 11.238281 8.152344 C 11.558594 8.34375 11.898438 8.398438 12.261719 8.3125 C 13.988281 7.925781 15.71875 7.925781 17.449219 8.3125 C 17.808594 8.398438 18.148438 8.34375 18.46875 8.152344 C 19.023438 7.792969 19.617188 7.507812 20.242188 7.296875 C 20.410156 7.246094 20.574219 7.230469 20.746094 7.253906 C 20.917969 7.277344 21.074219 7.335938 21.222656 7.429688 C 21.367188 7.519531 21.488281 7.636719 21.582031 7.78125 C 21.675781 7.925781 21.734375 8.082031 21.761719 8.253906 C 21.871094 8.824219 21.871094 9.398438 21.761719 9.96875 C 21.675781 10.351562 21.753906 10.703125 21.988281 11.019531 C 22.605469 11.890625 22.90625 12.859375 22.890625 13.929688 C 22.890625 18.207031 20.605469 19.542969 18.152344 20.015625 C 18.054688 20.035156 17.96875 20.070312 17.890625 20.132812 C 17.8125 20.191406 17.75 20.261719 17.707031 20.351562 C 17.660156 20.4375 17.636719 20.53125 17.636719 20.628906 C 17.632812 20.726562 17.652344 20.820312 17.695312 20.910156 C 17.914062 21.414062 18.019531 21.9375 18.011719 22.488281 L 18.011719 25.953125 C 18.011719 25.953125 18.191406 26.664062 18.832031 26.558594 Z M 18.832031 26.558594 " fill-opacity="1" fill-rule="nonzero"/></g></svg>