<svg xmlns="http://www.w3.org/2000/svg" xmlns:xlink="http://www.w3.org/1999/xlink" width="300" zoomAndPan="magnify" viewBox="0 0 224.87999 225" height="300" preserveAspectRatio="xMidYMid meet" version="1.0"><defs><clipPath id="76aca8dc7d"><path d="M 23 55 L 204 55 L 204 150 L 23 150 Z M 23 55 " clip-rule="nonzero"/></clipPath><clipPath id="dd8c2d3b67"><path d="M 67.089844 6.285156 L 224.769531 101.890625 L 154.035156 218.546875 L -3.644531 122.941406 Z M 67.089844 6.285156 " clip-rule="nonzero"/></clipPath><clipPath id="68e00e9f50"><path d="M 67.089844 6.285156 L 224.769531 101.890625 L 154.035156 218.546875 L -3.644531 122.941406 Z M 67.089844 6.285156 " clip-rule="nonzero"/></clipPath></defs><g clip-path="url(#76aca8dc7d)"><g clip-path="url(#dd8c2d3b67)"><g clip-path="url(#68e00e9f50)"><path fill="#d9d9d9" d="M 63.398438 109.597656 C 65.535156 108.933594 67.304688 108.273438 69.125 107.835938 C 75.199219 106.402344 81.234375 104.738281 87.386719 103.777344 C 94.023438 102.738281 99.734375 107.566406 101.179688 114.3125 C 101.546875 115.988281 103.125 117.398438 104.277344 119.113281 C 103.929688 121.25 101.832031 121.011719 100.238281 121.355469 C 85.765625 124.507812 72.390625 130.480469 59.578125 137.652344 C 54.679688 140.390625 50.28125 144.0625 45.769531 147.457031 C 42.226562 150.125 41.742188 150.515625 38.085938 147.878906 C 31.566406 143.171875 27.011719 137.222656 26.265625 128.714844 C 24.953125 113.925781 22.792969 99.199219 24.121094 84.296875 C 24.34375 81.875 24.871094 79.480469 25.476562 75.644531 C 30.488281 80.066406 35.136719 82.832031 35.398438 89.101562 C 35.554688 92.945312 35.773438 96.773438 36.015625 102.035156 C 39.039062 98.492188 41.082031 96.015625 43.199219 93.621094 C 59.167969 75.582031 78.414062 62.242188 102.167969 57.589844 C 123.785156 53.339844 145.460938 54.484375 165.214844 66.132812 C 181.804688 75.925781 192.03125 90.953125 198.101562 108.820312 C 200.523438 115.980469 201.628906 123.605469 203.121094 131.058594 C 203.507812 132.992188 203.109375 135.0625 203.058594 137.078125 C 202.53125 137.199219 202.003906 137.316406 201.476562 137.433594 C 200.214844 134.953125 198.8125 132.527344 197.757812 129.960938 C 197.101562 128.355469 196.941406 126.539062 196.625 124.808594 C 192.597656 102.558594 178.765625 88.882812 158.046875 81.714844 C 142.222656 76.234375 126.082031 76.765625 110.09375 81.203125 C 93.214844 85.875 78.46875 94.480469 65.582031 106.316406 C 65 106.839844 64.449219 107.398438 63.953125 107.992188 C 63.75 108.269531 63.707031 108.683594 63.398438 109.597656 Z M 63.398438 109.597656 " fill-opacity="1" fill-rule="nonzero"/></g></g></g></svg>