<svg xmlns="http://www.w3.org/2000/svg" xmlns:xlink="http://www.w3.org/1999/xlink" width="100" zoomAndPan="magnify" viewBox="0 0 75 74.999997" height="100" preserveAspectRatio="xMidYMid meet" version="1.0"><defs><clipPath id="e2c9a661a4"><path d="M 2.207031 2.207031 L 72.707031 2.207031 L 72.707031 72.707031 L 2.207031 72.707031 Z M 2.207031 2.207031 " clip-rule="nonzero"/></clipPath></defs><g clip-path="url(#e2c9a661a4)"><path fill="#dd4f43" d="M 12.78125 2.207031 L 62.132812 2.207031 C 62.828125 2.207031 63.515625 2.273438 64.195312 2.410156 C 64.875 2.546875 65.539062 2.746094 66.179688 3.011719 C 66.820312 3.277344 67.429688 3.605469 68.007812 3.988281 C 68.585938 4.375 69.117188 4.8125 69.609375 5.304688 C 70.101562 5.796875 70.539062 6.328125 70.925781 6.90625 C 71.3125 7.484375 71.636719 8.09375 71.902344 8.734375 C 72.167969 9.375 72.367188 10.039062 72.503906 10.71875 C 72.640625 11.398438 72.707031 12.089844 72.707031 12.78125 L 72.707031 62.132812 C 72.707031 62.828125 72.640625 63.515625 72.503906 64.195312 C 72.367188 64.875 72.167969 65.539062 71.902344 66.179688 C 71.636719 66.820312 71.3125 67.429688 70.925781 68.007812 C 70.539062 68.585938 70.101562 69.117188 69.609375 69.609375 C 69.117188 70.101562 68.585938 70.539062 68.007812 70.925781 C 67.429688 71.3125 66.820312 71.636719 66.179688 71.902344 C 65.539062 72.167969 64.875 72.367188 64.195312 72.503906 C 63.515625 72.640625 62.828125 72.707031 62.132812 72.707031 L 12.78125 72.707031 C 12.089844 72.707031 11.398438 72.640625 10.71875 72.503906 C 10.039062 72.367188 9.375 72.167969 8.734375 71.902344 C 8.09375 71.636719 7.484375 71.3125 6.90625 70.925781 C 6.328125 70.539062 5.796875 70.101562 5.304688 69.609375 C 4.8125 69.117188 4.375 68.585938 3.988281 68.007812 C 3.605469 67.429688 3.277344 66.820312 3.011719 66.179688 C 2.746094 65.539062 2.546875 64.875 2.410156 64.195312 C 2.273438 63.515625 2.207031 62.828125 2.207031 62.132812 L 2.207031 12.78125 C 2.207031 12.089844 2.273438 11.398438 2.410156 10.71875 C 2.546875 10.039062 2.746094 9.375 3.011719 8.734375 C 3.277344 8.09375 3.605469 7.484375 3.988281 6.90625 C 4.375 6.328125 4.8125 5.796875 5.304688 5.304688 C 5.796875 4.8125 6.328125 4.375 6.90625 3.988281 C 7.484375 3.605469 8.09375 3.277344 8.734375 3.011719 C 9.375 2.746094 10.039062 2.546875 10.71875 2.410156 C 11.398438 2.273438 12.089844 2.207031 12.78125 2.207031 Z M 12.78125 2.207031 " fill-opacity="1" fill-rule="nonzero"/></g><path fill="#ffffff" d="M 9.917969 37.59375 C 9.890625 36.742188 9.925781 35.894531 10.027344 35.046875 C 10.125 34.199219 10.285156 33.363281 10.503906 32.542969 C 10.726562 31.71875 11.007812 30.914062 11.347656 30.132812 C 11.6875 29.351562 12.082031 28.597656 12.53125 27.875 C 12.984375 27.152344 13.484375 26.464844 14.035156 25.816406 C 14.589844 25.167969 15.183594 24.558594 15.824219 24 C 16.46875 23.4375 17.144531 22.925781 17.863281 22.464844 C 18.578125 22 19.324219 21.59375 20.101562 21.242188 C 20.878906 20.890625 21.675781 20.597656 22.496094 20.363281 C 23.316406 20.132812 24.148438 19.957031 24.996094 19.847656 C 25.839844 19.734375 26.6875 19.6875 27.539062 19.699219 C 28.394531 19.714844 29.238281 19.789062 30.082031 19.929688 C 30.921875 20.066406 31.75 20.269531 32.558594 20.527344 C 33.371094 20.789062 34.160156 21.105469 34.925781 21.484375 C 35.691406 21.859375 36.421875 22.292969 37.125 22.777344 C 37.824219 23.261719 38.488281 23.792969 39.109375 24.375 L 34.566406 28.921875 C 31.675781 27.128906 27.820312 25.617188 24.238281 26.992188 C 23.554688 27.238281 22.902344 27.542969 22.28125 27.917969 C 21.660156 28.289062 21.082031 28.71875 20.542969 29.207031 C 20.007812 29.691406 19.519531 30.226562 19.089844 30.808594 C 18.65625 31.390625 18.285156 32.011719 17.976562 32.667969 C 17.667969 33.320312 17.421875 34 17.246094 34.703125 C 17.070312 35.40625 16.964844 36.121094 16.929688 36.84375 C 16.894531 37.570312 16.929688 38.289062 17.035156 39.007812 C 17.140625 39.722656 17.316406 40.421875 17.558594 41.105469 C 17.804688 41.789062 18.113281 42.441406 18.484375 43.0625 C 18.859375 43.683594 19.289062 44.265625 19.773438 44.800781 C 20.261719 45.339844 20.796875 45.824219 21.378906 46.253906 C 21.960938 46.6875 22.578125 47.058594 23.234375 47.367188 C 23.890625 47.679688 24.570312 47.921875 25.273438 48.097656 C 25.976562 48.273438 26.6875 48.378906 27.414062 48.414062 C 28.136719 48.453125 28.855469 48.417969 29.574219 48.308594 C 30.292969 48.203125 30.992188 48.027344 31.675781 47.785156 C 34.566406 46.683594 36.492188 43.929688 37.320312 41.175781 L 27.40625 41.039062 L 27.40625 34.980469 L 44.203125 34.980469 C 44.34375 39.9375 43.792969 45.167969 40.488281 49.023438 C 39.902344 49.679688 39.273438 50.289062 38.601562 50.851562 C 37.925781 51.414062 37.214844 51.921875 36.460938 52.378906 C 35.710938 52.832031 34.929688 53.230469 34.117188 53.566406 C 33.308594 53.902344 32.476562 54.175781 31.625 54.390625 C 30.773438 54.601562 29.910156 54.75 29.035156 54.832031 C 28.160156 54.910156 27.285156 54.929688 26.40625 54.878906 C 25.53125 54.828125 24.664062 54.710938 23.804688 54.53125 C 22.945312 54.351562 22.101562 54.105469 21.28125 53.800781 C 20.457031 53.492188 19.664062 53.125 18.894531 52.695312 C 18.128906 52.269531 17.398438 51.785156 16.703125 51.25 C 16.007812 50.710938 15.359375 50.125 14.753906 49.492188 C 14.144531 48.855469 13.589844 48.179688 13.085938 47.457031 C 12.582031 46.738281 12.136719 45.988281 11.746094 45.199219 C 11.351562 44.414062 11.023438 43.601562 10.753906 42.765625 C 10.488281 41.929688 10.28125 41.078125 10.140625 40.210938 C 10 39.34375 9.925781 38.472656 9.917969 37.59375 Z M 54.945312 29.882812 L 59.902344 29.882812 L 60.039062 34.980469 L 64.996094 34.980469 L 64.996094 40.074219 L 60.039062 40.074219 L 59.902344 45.03125 L 54.945312 45.03125 L 54.945312 40.074219 L 49.851562 40.074219 L 49.851562 34.980469 L 54.945312 34.980469 Z M 54.945312 29.882812 " fill-opacity="1" fill-rule="nonzero"/></svg>