<svg xmlns="http://www.w3.org/2000/svg" xmlns:xlink="http://www.w3.org/1999/xlink" width="40" zoomAndPan="magnify" viewBox="0 0 30 30.000001" height="40" preserveAspectRatio="xMidYMid meet" version="1.0"><defs><clipPath id="efd73a15b7"><path d="M 2.542969 2.0625 L 27.222656 2.0625 L 27.222656 26.738281 L 2.542969 26.738281 Z M 2.542969 2.0625 " clip-rule="nonzero"/></clipPath></defs><g clip-path="url(#efd73a15b7)"><path fill="#5271ff" d="M 21.019531 2.070312 L 8.726562 2.070312 C 5.324219 2.070312 2.542969 4.847656 2.542969 8.253906 L 2.542969 20.5625 C 2.542969 23.949219 5.324219 26.726562 8.726562 26.726562 L 21.039062 26.726562 C 24.441406 26.726562 27.222656 23.949219 27.222656 20.542969 L 27.222656 8.253906 C 27.203125 4.847656 24.421875 2.070312 21.019531 2.070312 Z M 10.765625 22.03125 L 7.242188 22.03125 L 7.242188 11.855469 L 10.765625 11.855469 Z M 8.984375 10.289062 C 7.984375 10.289062 7.183594 9.488281 7.183594 8.488281 C 7.183594 7.492188 7.984375 6.6875 8.984375 6.6875 C 9.980469 6.6875 10.785156 7.492188 10.785156 8.488281 C 10.765625 9.488281 9.960938 10.289062 8.984375 10.289062 Z M 22.503906 22.03125 L 19.570312 22.03125 L 19.570312 17.101562 C 19.570312 15.90625 19.414062 14.378906 17.789062 14.378906 C 16.125 14.378906 15.851562 15.671875 15.851562 17.023438 L 15.851562 22.03125 L 12.917969 22.03125 L 12.917969 11.855469 L 15.65625 11.855469 L 15.65625 13.226562 L 15.734375 13.226562 C 16.164062 12.441406 17.164062 11.835938 18.730469 11.835938 C 21.957031 11.835938 22.523438 13.695312 22.523438 16.453125 L 22.523438 22.03125 Z M 22.503906 22.03125 " fill-opacity="1" fill-rule="nonzero"/></g></svg>